<svg xmlns="http://www.w3.org/2000/svg" xmlns:xlink="http://www.w3.org/1999/xlink" width="108"
   height="108" viewBox="0 0 108 108">
   <defs>
      <clipPath id="clip-path">
         <path id="mask-squircle" d="M36,0C7.2,0,0,7.2,0,36S7.2,72,36,72s36-7.2,36-36S64.8,0,36,0Z"
            transform="translate(14 14)" fill="none" />
      </clipPath>
      <radialGradient id="radial-gradient" cx="0.029" cy="0.5" r="0.471"
         gradientUnits="objectBoundingBox">
         <stop offset="0" stop-opacity="0.4" />
         <stop offset="1" stop-opacity="0" />
      </radialGradient>
      <clipPath id="clip-squircle-masked">
         <rect width="108" height="108" />
      </clipPath>
   </defs>
   <g id="squircle-masked" clip-path="url(#clip-squircle-masked)">
      <g id="group" transform="translate(4 4)">
         <path id="mask-squircle-2" data-name="mask-squircle"
            d="M36,0C7.2,0,0,7.2,0,36S7.2,72,36,72s36-7.2,36-36S64.8,0,36,0Z"
            transform="translate(14 14)" fill="none" />
         <g id="group-2" data-name="group" clip-path="url(#clip-path)">
            <g id="adaptive-icon" transform="translate(-4 -4)">
               <g id="adaptive-icon-2" data-name="adaptive-icon">
                  <g id="foreground">
                     <rect id="shadow" width="76" height="52"
                        transform="translate(72.515 35.745) rotate(45)"
                        fill="url(#radial-gradient)" />
                     <g id="outer" transform="translate(28 28)">
                        <circle id="glass" cx="26" cy="26" r="26" transform="translate(0 0)"
                           fill="#212121" />
                        <path id="reflection"
                           d="M0,25.88A25.88,25.88,0,0,1,44.71,8.127L8.127,44.71A25.809,25.809,0,0,1,0,25.88Z"
                           transform="translate(0.121 0.121)" fill="rgba(224,224,224,0.08)" />
                     </g>
                  </g>
               </g>
            </g>
         </g>
      </g>
   </g>
</svg>
